<svg width="25" height="24" viewBox="0 0 25 24" fill="none" xmlns="http://www.w3.org/2000/svg">
<g clip-path="url(#clip0_7_8491)">
<path d="M8.5 4.9375C8.5 4.02344 9.23828 3.25 10.1875 3.25H15.8125C16.7266 3.25 17.5 4.02344 17.5 4.9375V21.25H14.6875V18.4375C14.6875 17.5234 13.9141 16.75 13 16.75C12.0508 16.75 11.3125 17.5234 11.3125 18.4375V21.25H8.5V4.9375ZM12.7188 5.5C12.4023 5.5 12.1562 5.78125 12.1562 6.0625V6.90625H11.3125C10.9961 6.90625 10.75 7.1875 10.75 7.46875V8.03125C10.75 8.34766 10.9961 8.59375 11.3125 8.59375H12.1562V9.4375C12.1562 9.75391 12.4023 10 12.7188 10H13.2812C13.5625 10 13.8438 9.75391 13.8438 9.4375V8.59375H14.6875C14.9688 8.59375 15.25 8.34766 15.25 8.03125V7.46875C15.25 7.1875 14.9688 6.90625 14.6875 6.90625H13.8438V6.0625C13.8438 5.78125 13.5625 5.5 13.2812 5.5H12.7188ZM7.375 6.625V21.25H3.4375C2.48828 21.25 1.75 20.5117 1.75 19.5625V14.5H4.5625C4.84375 14.5 5.125 14.2539 5.125 13.9375C5.125 13.6562 4.84375 13.375 4.5625 13.375H1.75V11.125H4.5625C4.84375 11.125 5.125 10.8789 5.125 10.5625C5.125 10.2812 4.84375 10 4.5625 10H1.75V8.3125C1.75 7.39844 2.48828 6.625 3.4375 6.625H7.375ZM22.5625 6.625C23.4766 6.625 24.25 7.39844 24.25 8.3125V10H21.4375C21.1211 10 20.875 10.2812 20.875 10.5625C20.875 10.8789 21.1211 11.125 21.4375 11.125H24.25V13.375H21.4375C21.1211 13.375 20.875 13.6562 20.875 13.9375C20.875 14.2539 21.1211 14.5 21.4375 14.5H24.25V19.5625C24.25 20.5117 23.4766 21.25 22.5625 21.25H18.625V6.625H22.5625Z" fill="#6B7280"/>
</g>
<defs>
<clipPath id="clip0_7_8491">
<rect width="24" height="24" fill="white" transform="translate(0.5)"/>
</clipPath>
</defs>
</svg>
