<svg width="25" height="24" viewBox="0 0 25 24" fill="none" xmlns="http://www.w3.org/2000/svg">
<path d="M3.5 8.3125V18.4375C3.5 19.3516 4.27344 20.125 5.1875 20.125H5.75V6.625H5.1875C4.27344 6.625 3.5 7.43359 3.5 8.3125ZM19.8125 6.625H19.25V20.125H19.8125C20.6914 20.125 21.5 19.3516 21.5 18.4375V8.3125C21.5 7.43359 20.6914 6.625 19.8125 6.625ZM17 4.9375C17 4.05859 16.1914 3.25 15.3125 3.25H9.6875C8.77344 3.25 8 4.05859 8 4.9375V6.625H6.875V20.125H18.125V6.625H17V4.9375ZM9.6875 4.9375H15.3125V6.625H9.6875V4.9375ZM15.875 14.2188C15.875 14.3945 15.7344 14.5 15.5938 14.5H13.625V16.4688C13.625 16.6445 13.4844 16.75 13.3438 16.75H11.6562C11.4805 16.75 11.375 16.6445 11.375 16.4688V14.5H9.40625C9.23047 14.5 9.125 14.3945 9.125 14.2188V12.5312C9.125 12.3906 9.23047 12.25 9.40625 12.25H11.375V10.2812C11.375 10.1406 11.4805 10 11.6562 10H13.3438C13.4844 10 13.625 10.1406 13.625 10.2812V12.25H15.5938C15.7344 12.25 15.875 12.3906 15.875 12.5312V14.2188Z" fill="#6B7280"/>
</svg>
