<svg width="25" height="24" viewBox="0 0 25 24" fill="none" xmlns="http://www.w3.org/2000/svg">
<path d="M19.75 7.1875C18.168 7.1875 16.9375 8.45312 16.9375 10C16.9375 11.1602 17.6055 12.1445 18.625 12.6016V15.3789C18.625 17.3828 16.832 19.0352 14.6875 19.0352C12.5781 19.0352 10.8203 17.4531 10.75 15.5195C13.2812 14.9922 15.25 12.7422 15.25 10V4.55078C15.25 4.16406 14.9336 3.8125 14.5469 3.74219L12.332 3.28516C11.875 3.17969 11.4531 3.49609 11.3477 3.95312L11.2422 4.48047C11.1367 4.9375 11.4531 5.39453 11.9102 5.5L12.9648 5.71094V9.96484C12.9648 11.8281 11.4883 13.375 9.625 13.375C7.76172 13.4102 6.21484 11.8984 6.21484 10V5.71094L7.30469 5.5C7.76172 5.39453 8.07812 4.97266 7.97266 4.51562L7.86719 3.95312C7.76172 3.49609 7.33984 3.17969 6.88281 3.28516L4.66797 3.70703C4.28125 3.8125 4 4.16406 4 4.55078V10C4 12.7422 5.93359 14.9922 8.5 15.5195C8.57031 18.7188 11.3125 21.25 14.6875 21.25C18.0977 21.25 20.875 18.6133 20.875 15.3438V12.6016C21.8594 12.1445 22.5625 11.1602 22.5625 10.0352C22.5625 8.45312 21.2969 7.1875 19.75 7.1875ZM19.75 10.8438C19.2578 10.8438 18.9062 10.4922 18.9062 10C18.9062 9.54297 19.2578 9.15625 19.75 9.15625C20.207 9.15625 20.5938 9.54297 20.5938 10C20.5938 10.4922 20.207 10.8438 19.75 10.8438Z" fill="#6B7280"/>
</svg>
